<?xml version="1.0" encoding="UTF-8" standalone="no"?>
<svg
   xmlns:dc="http://purl.org/dc/elements/1.1/"
   xmlns:cc="http://creativecommons.org/ns#"
   xmlns:rdf="http://www.w3.org/1999/02/22-rdf-syntax-ns#"
   xmlns:svg="http://www.w3.org/2000/svg"
   xmlns="http://www.w3.org/2000/svg"
   xmlns:sodipodi="http://sodipodi.sourceforge.net/DTD/sodipodi-0.dtd"
   xmlns:inkscape="http://www.inkscape.org/namespaces/inkscape"
   version="1.1"
   x="0px"
   y="0px"
   viewBox="0 0 100 125"
   enable-background="new 0 0 100 100"
   xml:space="preserve"
   id="svg4265"
   inkscape:version="0.91 r13725"
   sodipodi:docname="baseball.svg"><metadata
     id="metadata4323"><rdf:RDF><cc:Work
         rdf:about=""><dc:format>image/svg+xml</dc:format><dc:type
           rdf:resource="http://purl.org/dc/dcmitype/StillImage" /><dc:title></dc:title></cc:Work></rdf:RDF></metadata><defs
     id="defs4321" /><sodipodi:namedview
     pagecolor="#ffffff"
     bordercolor="#666666"
     borderopacity="1"
     objecttolerance="10"
     gridtolerance="10"
     guidetolerance="10"
     inkscape:pageopacity="0"
     inkscape:pageshadow="2"
     inkscape:window-width="664"
     inkscape:window-height="480"
     id="namedview4319"
     showgrid="false"
     inkscape:zoom="1.888"
     inkscape:cx="50"
     inkscape:cy="62.5"
     inkscape:window-x="270"
     inkscape:window-y="20"
     inkscape:window-maximized="0"
     inkscape:current-layer="svg4265" /><g
     id="g4267"
     style="fill:#a2bc55;fill-opacity:1"><path
       fill="#000000"
       d="M29.205,45.458c-0.197-0.758-0.97-1.209-1.729-1.018c-0.758,0.196-1.211,0.972-1.016,1.729l2.25,8.668   c0.166,0.637,0.741,1.061,1.371,1.061c0.117,0,0.238-0.014,0.357-0.045c0.758-0.197,1.211-0.971,1.016-1.729L29.205,45.458z"
       id="path4269"
       style="fill:#a2bc55;fill-opacity:1" /><path
       fill="#000000"
       d="M33.437,43.774c-0.289-0.728-1.113-1.082-1.84-0.793c-0.729,0.289-1.084,1.111-0.796,1.84l3.306,8.322   c0.221,0.555,0.754,0.895,1.316,0.895c0.174,0,0.352-0.033,0.521-0.102c0.729-0.289,1.084-1.113,0.796-1.841L33.437,43.774z"
       id="path4271"
       style="fill:#a2bc55;fill-opacity:1" /><path
       fill="#000000"
       d="M37.94,40.937c-0.428-0.652-1.307-0.836-1.961-0.408c-0.655,0.429-0.84,1.308-0.41,1.962l4.904,7.491   c0.271,0.414,0.726,0.642,1.188,0.642c0.266,0,0.534-0.074,0.774-0.231c0.654-0.429,0.838-1.308,0.408-1.962L37.94,40.937z"
       id="path4273"
       style="fill:#a2bc55;fill-opacity:1" /><path
       fill="#000000"
       d="M45.756,45.589c0.275,0.266,0.632,0.398,0.984,0.398c0.37,0,0.741-0.146,1.02-0.435   c0.546-0.563,0.529-1.46-0.034-2.004l-6.439-6.221c-0.563-0.543-1.461-0.528-2.004,0.034c-0.545,0.563-0.529,1.461,0.033,2.005   L45.756,45.589z"
       id="path4275"
       style="fill:#a2bc55;fill-opacity:1" /><path
       fill="#000000"
       d="M42.337,35.517l7.637,4.676c0.231,0.143,0.486,0.209,0.739,0.209c0.478,0,0.942-0.24,1.21-0.676   c0.408-0.668,0.198-1.541-0.469-1.949l-7.637-4.676c-0.668-0.41-1.541-0.201-1.948,0.467C41.459,34.235,41.67,35.108,42.337,35.517   z"
       id="path4277"
       style="fill:#a2bc55;fill-opacity:1" /><path
       fill="#000000"
       d="M44.397,30.63l8.326,3.294c0.172,0.068,0.348,0.101,0.521,0.101c0.563,0,1.098-0.34,1.318-0.896   c0.286-0.728-0.069-1.551-0.798-1.839l-8.325-3.294c-0.73-0.289-1.553,0.069-1.84,0.796C43.313,29.52,43.67,30.342,44.397,30.63z"
       id="path4279"
       style="fill:#a2bc55;fill-opacity:1" /><path
       fill="#000000"
       d="M70.087,44.703c-0.213-0.753-0.995-1.188-1.749-0.979c-0.754,0.213-1.191,0.996-0.979,1.75l2.433,8.617   c0.177,0.625,0.745,1.033,1.363,1.033c0.128,0,0.257-0.018,0.386-0.053c0.754-0.213,1.192-0.996,0.979-1.75L70.087,44.703z"
       id="path4281"
       style="fill:#a2bc55;fill-opacity:1" /><path
       fill="#000000"
       d="M64.729,46.511c-0.304-0.723-1.136-1.06-1.856-0.756c-0.721,0.305-1.06,1.135-0.755,1.857l3.478,8.25   c0.229,0.541,0.753,0.867,1.308,0.867c0.184,0,0.37-0.037,0.55-0.113c0.721-0.303,1.06-1.135,0.755-1.855L64.729,46.511z"
       id="path4283"
       style="fill:#a2bc55;fill-opacity:1" /><path
       fill="#000000"
       d="M58.428,49.806c-0.442-0.647-1.327-0.811-1.97-0.369c-0.646,0.443-0.811,1.324-0.368,1.972l5.063,7.387   c0.273,0.399,0.719,0.615,1.17,0.615c0.275,0,0.556-0.08,0.8-0.248c0.646-0.441,0.811-1.324,0.368-1.97L58.428,49.806z"
       id="path4285"
       style="fill:#a2bc55;fill-opacity:1" /><path
       fill="#000000"
       d="M53.24,54.308c-0.573-0.529-1.472-0.496-2.003,0.078s-0.497,1.471,0.076,2.002l6.569,6.084   c0.272,0.252,0.618,0.377,0.963,0.377c0.382,0,0.762-0.152,1.04-0.453c0.531-0.574,0.497-1.471-0.077-2.004L53.24,54.308z"
       id="path4287"
       style="fill:#a2bc55;fill-opacity:1" /><path
       fill="#000000"
       d="M56.87,64.306l-7.732-4.516c-0.677-0.396-1.546-0.166-1.939,0.51c-0.395,0.676-0.166,1.543,0.51,1.938   l7.733,4.517c0.225,0.131,0.471,0.192,0.714,0.192c0.486,0,0.962-0.252,1.225-0.702C57.774,65.567,57.546,64.7,56.87,64.306z"
       id="path4289"
       style="fill:#a2bc55;fill-opacity:1" /><path
       fill="#000000"
       d="M54.912,69.235l-8.396-3.119c-0.731-0.273-1.549,0.102-1.822,0.834c-0.271,0.734,0.103,1.551,0.836,1.822   l8.394,3.119c0.163,0.061,0.33,0.09,0.494,0.09c0.575,0,1.116-0.354,1.328-0.924C56.021,70.323,55.646,69.509,54.912,69.235z"
       id="path4291"
       style="fill:#a2bc55;fill-opacity:1" /><path
       fill="#000000"
       d="M53.162,58.782c-0.472,0.646-0.919,1.313-1.335,2l3.687,2.152c0.258-0.42,0.516-0.839,0.795-1.24   L53.162,58.782z"
       id="path4293"
       style="fill:#a2bc55;fill-opacity:1" /><path
       fill="#000000"
       d="M57.378,54.171c-0.605,0.531-1.188,1.088-1.748,1.668l3.118,2.889c0.34-0.352,0.7-0.68,1.061-1.008   L57.378,54.171z"
       id="path4295"
       style="fill:#a2bc55;fill-opacity:1" /><path
       fill="#000000"
       d="M66.271,48.882l1.655,3.926c0.296-0.104,0.603-0.188,0.902-0.281l-1.162-4.118   C67.196,48.554,66.731,48.714,66.271,48.882z"
       id="path4297"
       style="fill:#a2bc55;fill-opacity:1" /><path
       fill="#000000"
       d="M39.688,42.694l2.351,3.588c0.659-0.557,1.293-1.143,1.897-1.756l-3.061-2.955   C40.494,41.959,40.099,42.333,39.688,42.694z"
       id="path4299"
       style="fill:#a2bc55;fill-opacity:1" /><path
       fill="#000000"
       d="M60.427,51.839l2.413,3.521c0.521-0.34,1.049-0.664,1.595-0.965l-1.665-3.951   C61.964,50.872,61.184,51.339,60.427,51.839z"
       id="path4301"
       style="fill:#a2bc55;fill-opacity:1" /><path
       fill="#000000"
       d="M50.063,64.192c-0.334,0.772-0.637,1.565-0.901,2.373l3.997,1.485c0.185-0.573,0.396-1.135,0.622-1.688   L50.063,64.192z"
       id="path4303"
       style="fill:#a2bc55;fill-opacity:1" /><path
       fill="#000000"
       d="M34.854,45.993l1.58,3.98c0.861-0.433,1.699-0.902,2.508-1.419l-2.334-3.565   C36.039,45.349,35.454,45.683,34.854,45.993z"
       id="path4305"
       style="fill:#a2bc55;fill-opacity:1" /><path
       fill="#000000"
       d="M30.328,47.794l1.069,4.117c0.504-0.139,1.004-0.295,1.496-0.461l-1.576-3.973   C30.987,47.585,30.663,47.7,30.328,47.794z"
       id="path4307"
       style="fill:#a2bc55;fill-opacity:1" /><path
       fill="#000000"
       d="M50,21.437c-15.751,0-28.563,12.813-28.563,28.564c0,15.748,12.813,28.563,28.563,28.563   c15.75,0,28.563-12.813,28.563-28.563C78.563,34.25,65.75,21.437,50,21.437z M52.031,74.22c0.038-0.814,0.124-1.617,0.241-2.408   l-4.062-1.508c-0.231,1.273-0.379,2.576-0.433,3.902C36.358,73.167,27.2,64.2,25.86,52.868c0.598-0.043,1.188-0.109,1.772-0.188   l-1.082-4.168c-0.274,0.031-0.546,0.082-0.823,0.104c0.045-0.787,0.131-1.562,0.248-2.324c-0.148-0.576-0.011-1.155,0.313-1.604   c2.274-10.158,10.91-17.938,21.501-18.896c-0.036,0.845-0.127,1.675-0.249,2.495l4.047,1.603c0.248-1.341,0.403-2.712,0.454-4.109   c11.532,0.966,20.799,10.011,22.104,21.444c-0.927,0.059-1.842,0.164-2.741,0.311l1.169,4.142c0.559-0.079,1.117-0.157,1.688-0.196   C73.535,63.524,64.002,73.224,52.031,74.22z"
       id="path4309"
       style="fill:#a2bc55;fill-opacity:1" /><path
       fill="#000000"
       d="M46.442,41.616c0.512-0.684,0.992-1.389,1.441-2.116l-3.641-2.229c-0.285,0.463-0.582,0.916-0.896,1.355   L46.442,41.616z"
       id="path4311"
       style="fill:#a2bc55;fill-opacity:1" /><path
       fill="#000000"
       d="M49.673,36.101c0.354-0.805,0.676-1.627,0.954-2.468l-3.966-1.568c-0.195,0.607-0.421,1.2-0.663,1.786   L49.673,36.101z"
       id="path4313"
       style="fill:#a2bc55;fill-opacity:1" /></g></svg>