<?xml version="1.0" encoding="UTF-8" standalone="no"?>
<svg
   xmlns:dc="http://purl.org/dc/elements/1.1/"
   xmlns:cc="http://creativecommons.org/ns#"
   xmlns:rdf="http://www.w3.org/1999/02/22-rdf-syntax-ns#"
   xmlns:svg="http://www.w3.org/2000/svg"
   xmlns="http://www.w3.org/2000/svg"
   xmlns:sodipodi="http://sodipodi.sourceforge.net/DTD/sodipodi-0.dtd"
   xmlns:inkscape="http://www.inkscape.org/namespaces/inkscape"
   version="1.1"
   x="0px"
   y="0px"
   viewBox="0 0 90 112.5"
   enable-background="new 0 0 90 90"
   xml:space="preserve"
   id="svg2"
   inkscape:version="0.91 r13725"
   sodipodi:docname="camping.svg"><metadata
     id="metadata24"><rdf:RDF><cc:Work
         rdf:about=""><dc:format>image/svg+xml</dc:format><dc:type
           rdf:resource="http://purl.org/dc/dcmitype/StillImage" /><dc:title></dc:title></cc:Work></rdf:RDF></metadata><defs
     id="defs22" /><sodipodi:namedview
     pagecolor="#ffffff"
     bordercolor="#666666"
     borderopacity="1"
     objecttolerance="10"
     gridtolerance="10"
     guidetolerance="10"
     inkscape:pageopacity="0"
     inkscape:pageshadow="2"
     inkscape:window-width="664"
     inkscape:window-height="480"
     id="namedview20"
     showgrid="false"
     inkscape:zoom="2.0977778"
     inkscape:cx="-18.400424"
     inkscape:cy="56.25"
     inkscape:window-x="229"
     inkscape:window-y="1"
     inkscape:window-maximized="0"
     inkscape:current-layer="svg2" /><g
     id="g4"
     style="fill:#a2bc55;fill-opacity:1"><g
       id="g6"
       style="fill:#a2bc55;fill-opacity:1"><g
         id="g8"
         style="fill:#a2bc55;fill-opacity:1"><path
           fill-rule="evenodd"
           clip-rule="evenodd"
           fill="#000000"
           d="M43.981,41.875c0.002-0.197,0.071-0.365,0.214-0.502     c0.137-0.144,0.306-0.216,0.502-0.216s0.365,0.072,0.502,0.216c0.141,0.137,0.212,0.306,0.214,0.502v3.585     c-0.002,0.199-0.073,0.365-0.214,0.503c-0.138,0.142-0.306,0.214-0.502,0.214s-0.365-0.072-0.502-0.214     c-0.144-0.138-0.212-0.304-0.214-0.503V41.875z M43.981,36.133c0.002-0.196,0.071-0.364,0.214-0.505     c0.137-0.14,0.306-0.211,0.502-0.211s0.365,0.072,0.502,0.211c0.141,0.141,0.212,0.309,0.214,0.505v3.589     c-0.002,0.196-0.073,0.362-0.214,0.499c-0.138,0.144-0.306,0.216-0.502,0.219c-0.197-0.003-0.365-0.075-0.502-0.219     c-0.144-0.137-0.212-0.303-0.214-0.499V36.133z M44.195,47.114c0.137-0.144,0.306-0.216,0.502-0.218     c0.197,0.002,0.365,0.074,0.502,0.218c0.141,0.139,0.212,0.306,0.214,0.5v3.591c-0.002,0.194-0.073,0.361-0.214,0.499     c-0.138,0.144-0.306,0.214-0.502,0.22c-0.197-0.006-0.365-0.076-0.502-0.22c-0.144-0.138-0.212-0.305-0.214-0.499v-3.591     C43.983,47.42,44.052,47.253,44.195,47.114z"
           id="path10"
           style="fill:#a2bc55;fill-opacity:1" /></g><g
         id="g12"
         style="fill:#a2bc55;fill-opacity:1"><path
           fill="#000000"
           d="M11.147,68.605c-0.225,0-0.452-0.023-0.681-0.071c-0.949-0.259-1.624-0.77-2.046-1.529     c-0.445-0.77-0.538-1.602-0.262-2.4c0.175-0.833,0.669-1.489,1.436-1.909l0.055-0.055c0.052-0.055,0.112-0.101,0.181-0.138     l1.741-0.973l-2.217-0.603c-0.792-0.207-1.445-0.706-1.935-1.482c-0.168-0.251-0.284-0.526-0.338-0.805     c-0.16-0.548-0.155-1.103,0.014-1.65c0.077-0.274,0.185-0.53,0.316-0.747c0.246-0.453,0.656-0.847,1.204-1.142     c0.749-0.415,1.524-0.518,2.295-0.305l0.937,0.259c-0.638-1.277-0.886-2.667-0.74-4.154c0.173-1.724,0.697-3.331,1.56-4.781     l6.863-11.634c0.131-0.223,0.37-0.359,0.629-0.359c0,0,0,0,0.001,0c0.259,0,0.499,0.138,0.629,0.361l6.118,10.432L43.98,18.794     c0.049-0.08,0.115-0.15,0.195-0.208c0,0,0.001,0,0.001,0l0,0c0.01-0.008,0.021-0.015,0.032-0.022c0,0,0,0,0.001,0l0,0     c0.124-0.078,0.246-0.112,0.4-0.113h16.981c0.245,0,0.473,0.122,0.609,0.326l23.077,34.713c0.148,0.224,0.163,0.51,0.036,0.748     c-0.125,0.236-0.371,0.385-0.64,0.387l-5.672,0.038c0.468,0.639,0.7,1.359,0.7,2.153c0,0.188-0.023,0.378-0.07,0.565     c-0.153,0.691-0.475,1.313-0.949,1.827c-0.726,0.687-1.55,1.015-2.485,1.015H41.776c-0.591,0-1.081,0.19-1.496,0.581     c-0.397,0.397-0.598,0.882-0.598,1.465c0,0.574,0.195,1.037,0.598,1.416c0.442,0.465,0.921,0.677,1.496,0.677h20.595     c0.403,0,0.73,0.327,0.73,0.73s-0.327,0.73-0.73,0.73H41.776c-0.984,0-1.834-0.372-2.527-1.104     c-0.671-0.63-1.027-1.464-1.027-2.449c0-0.977,0.35-1.822,1.041-2.513c0.705-0.664,1.545-0.993,2.513-0.993h34.422     c0.56,0,1.032-0.19,1.447-0.58c0.267-0.292,0.463-0.677,0.566-1.137c0.022-0.09,0.031-0.16,0.031-0.23     c0-0.591-0.206-1.096-0.628-1.544c-0.313-0.313-0.677-0.513-1.099-0.598l-32.792-0.05H31.75c0.027,0.137,0.04,0.269,0.044,0.402     c0.071,0.359,0.046,0.764-0.073,1.202c-0.251,0.757-0.705,1.347-1.361,1.788l-0.046,0.046c-0.118,0.119-0.273,0.191-0.438,0.209     l-1.93,1.089l2.061,0.573c0.126,0.007,0.246,0.024,0.358,0.053c0.04,0.004,0.08,0.011,0.108,0.018     c0.801,0.212,1.44,0.697,1.897,1.445c0.432,0.774,0.537,1.576,0.329,2.409c-0.21,0.883-0.728,1.551-1.536,1.977     c-0.679,0.442-1.502,0.556-2.392,0.3c-0.061-0.017-0.118-0.042-0.171-0.073c-0.041-0.005-0.081-0.012-0.121-0.023l-8.265-2.207     l-7.016,4.041c-0.134,0.121-0.287,0.225-0.454,0.308C12.24,68.461,11.701,68.605,11.147,68.605z M10.585,63.771l-0.012,0.012     c-0.056,0.056-0.144,0.126-0.214,0.161c-0.444,0.222-0.691,0.537-0.778,0.992c-0.007,0.039-0.018,0.077-0.032,0.115     c-0.151,0.412-0.106,0.804,0.142,1.232c0.233,0.42,0.597,0.688,1.118,0.83c0.404,0.083,0.826,0.013,1.254-0.227     c0.085-0.042,0.132-0.075,0.171-0.113c0.026-0.027,0.055-0.053,0.086-0.076c0.263-0.196,0.447-0.486,0.565-0.888     c0.036-0.191,0.062-0.423,0.067-0.645c-0.052-0.226-0.135-0.441-0.248-0.643c-0.129-0.216-0.296-0.409-0.5-0.575     c-0.167-0.093-0.343-0.175-0.529-0.247C11.3,63.626,10.941,63.65,10.585,63.771z M12.712,62.565     c0.089,0.045,0.176,0.09,0.262,0.14c0.03,0.017,0.06,0.036,0.087,0.058c0.363,0.283,0.669,0.629,0.909,1.03     c0.209,0.375,0.351,0.757,0.43,1.155c0.01,0.048,0.014,0.095,0.014,0.144c0,0.132-0.005,0.268-0.017,0.404l11.284-6.535     c0.004-0.002,0.008-0.005,0.012-0.006l3.457-1.948c0.09-0.061,0.196-0.11,0.31-0.144c0.014-0.009,0.027-0.02,0.042-0.028     c0.412-0.267,0.681-0.603,0.823-1.029c0.068-0.252,0.057-0.425,0.034-0.518c-0.015-0.059-0.022-0.117-0.022-0.177     c0-0.101-0.009-0.189-0.026-0.258c-0.033-0.093-0.092-0.225-0.162-0.341c-0.039-0.057-0.076-0.117-0.109-0.174     c-0.117-0.113-0.233-0.217-0.351-0.31c-0.007-0.005-0.013-0.011-0.02-0.016c-0.001-0.002-0.003-0.003-0.004-0.004     c-0.048-0.024-0.093-0.054-0.135-0.089c-0.105-0.087-0.248-0.15-0.422-0.189c-0.118-0.029-0.23-0.05-0.337-0.062     c-0.035,0.155-0.078,0.308-0.127,0.455c-0.188,0.492-0.421,0.958-0.704,1.418c-0.321,0.535-0.741,1.048-1.245,1.516     c-1.16,1.23-2.605,2.086-4.26,2.51c-1.592,0.292-3.168,0.274-4.517,0.051L13.85,61.93c-0.002,0.001-0.004,0.002-0.007,0.004     L12.712,62.565z M29.286,64.76c0.429,0.102,0.793,0.04,1.14-0.184c0.486-0.26,0.74-0.588,0.854-1.064     c0.119-0.476,0.063-0.906-0.171-1.327c-0.231-0.377-0.547-0.631-0.951-0.752c-0.054-0.007-0.109-0.016-0.15-0.029     c-0.005-0.002-0.04-0.009-0.11-0.012c-0.038,0-0.076-0.003-0.114-0.009h0c0,0,0-0.001,0-0.001c-0.004,0-0.009-0.001-0.014-0.001     c-0.382-0.07-0.715-0.015-1.019,0.158c-0.239,0.153-0.452,0.366-0.622,0.634c-0.098,0.147-0.163,0.288-0.207,0.442     c-0.066,0.263-0.079,0.536-0.033,0.788c0.022,0.15,0.087,0.305,0.193,0.475c0.215,0.322,0.48,0.57,0.799,0.741     C29.045,64.644,29.18,64.697,29.286,64.76z M21.997,62.795l4.539,1.212c-0.042-0.126-0.07-0.248-0.088-0.37     c-0.079-0.43-0.06-0.91,0.063-1.399c0.092-0.321,0.222-0.603,0.393-0.86c0.149-0.234,0.325-0.45,0.527-0.645l-1.279-0.355     L21.997,62.795z M10.132,56.151c-0.268,0-0.537,0.077-0.817,0.232c-0.305,0.164-0.512,0.354-0.638,0.586     c-0.08,0.135-0.135,0.271-0.183,0.435c-0.091,0.297-0.091,0.57-0.004,0.852c0.009,0.031,0.017,0.063,0.022,0.095     c0.016,0.092,0.06,0.192,0.131,0.3c0.3,0.474,0.651,0.752,1.086,0.866l3.66,0.995l2.635-1.498     c-0.523-0.244-1.014-0.541-1.469-0.888c-0.439-0.302-0.874-0.682-1.266-1.109c-0.02-0.02-0.046-0.044-0.076-0.068l-2.694-0.744     C10.391,56.169,10.262,56.151,10.132,56.151z M17.882,58.134c0.029,0.003,0.057,0.006,0.076,0.009     c1.223,0.233,2.762,0.254,4.164-0.001c1.333-0.343,2.542-1.06,3.543-2.12c0.437-0.407,0.771-0.813,1.024-1.236     c0.239-0.391,0.433-0.775,0.578-1.153c0.069-0.209,0.123-0.465,0.149-0.731c0.001-0.009,0.002-0.017,0.003-0.025     c0.003-0.021,0.007-0.043,0.012-0.065c0.112-0.54,0.14-1.136,0.083-1.771c-0.152-1.489-0.587-2.979-1.292-4.416     c-0.112-0.224-0.239-0.436-0.377-0.63l-5.688-9.695l-6.233,10.567c-0.754,1.268-1.212,2.674-1.363,4.181     c-0.173,1.761,0.31,3.297,1.475,4.691c0.104,0.077,0.207,0.167,0.31,0.27c0.342,0.371,0.693,0.679,1.069,0.938     C16.15,57.504,16.972,57.898,17.882,58.134z M76.589,53.213l6.726-0.04L61.2,19.911H45.961l22.063,33.254L76.589,53.213z      M60.136,53.163h6.133L44.605,20.508L27.713,46.355c0.676,1.479,1.098,3.004,1.255,4.543c0.041,0.458,0.046,0.901,0.016,1.325     c0.151,0.02,0.304,0.048,0.458,0.086c0.164,0.036,0.323,0.088,0.472,0.153l14.171-21.801c0.135-0.208,0.363-0.304,0.612-0.333     c0.245,0,0.474,0.124,0.61,0.329L60.136,53.163z M43.724,53.163h14.662l-13.684-20.77l-13.501,20.77H43.724z M20.062,57.107     c-1.448,0-2.689-0.453-3.69-1.349c-0.172-0.102-0.316-0.227-0.427-0.374c-1.003-1.06-1.435-2.308-1.283-3.711     c0.069-1.014,0.344-1.982,0.814-2.851l4.008-6.697c0.132-0.22,0.37-0.355,0.627-0.355c0,0,0,0,0.001,0     c0.257,0,0.495,0.136,0.626,0.356l3.652,6.135c0.297,0.555,0.527,1.105,0.702,1.665s0.299,1.144,0.369,1.738     c0.116,0.93-0.044,1.798-0.474,2.58c-0.213,0.39-0.481,0.768-0.797,1.125c-0.101,0.14-0.223,0.261-0.363,0.362     C22.79,56.646,21.523,57.107,20.062,57.107z M20.109,43.926l-3.364,5.62c-0.354,0.656-0.571,1.425-0.629,2.257     c-0.108,1.012,0.192,1.855,0.917,2.607c0.029,0.03,0.057,0.063,0.08,0.1c0.061,0.03,0.132,0.068,0.182,0.114     c0.744,0.688,1.648,1.023,2.766,1.023c1.123,0,2.047-0.338,2.825-1.032c0.024-0.021,0.05-0.042,0.077-0.06     c0.019-0.028,0.087-0.101,0.109-0.127c0.253-0.282,0.467-0.58,0.632-0.885c0.286-0.518,0.385-1.072,0.306-1.701     c0-0.001,0-0.003,0-0.005c-0.06-0.505-0.165-1.001-0.313-1.475c-0.148-0.473-0.343-0.938-0.58-1.384L20.109,43.926z"
           id="path14"
           style="fill:#a2bc55;fill-opacity:1" /></g></g></g></svg>